<svg width="217" height="46" viewBox="0 0 217 46" fill="none" xmlns="http://www.w3.org/2000/svg">
  <g clip-path="url(#clip0)">
    <path d="M15.1 4.2C8.7 4.2 3.5 9.4 3.5 15.8V32.5C3.5 34.7 5.3 36.5 7.5 36.5H14.9V25.5H10.8V20.8H14.9V17.3C14.9 13.4 17.2 11.4 20.6 11.4C22.2 11.4 23.6 11.5 24 11.6V15.9H21.6C19.8 15.9 19.5 16.8 19.5 18V20.8H23.8L23.1 25.5H19.5V36.5H26.8C29.1 36.5 30.8 34.7 30.8 32.5V15.8C30.8 9.4 25.6 4.2 19.2 4.2H15.1Z" fill="#3B5BFF"/>
    <path d="M39.6 25.2C39.6 18.5 44.2 13.4 50.5 13.4C56.8 13.4 61.4 18.5 61.4 25.2C61.4 31.9 56.8 37 50.5 37C44.2 37 39.6 31.9 39.6 25.2ZM56.2 25.2C56.2 21.1 53.8 18 50.5 18C47.2 18 44.8 21.1 44.8 25.2C44.8 29.3 47.2 32.3 50.5 32.3C53.8 32.3 56.2 29.3 56.2 25.2Z" fill="#0B1D8E"/>
    <path d="M66.3 14H71.2V20.4H71.3C72.2 18.4 74.1 17.1 76.6 17.1C80.7 17.1 83.4 20.5 83.4 25.1C83.4 30 80.6 33.8 76.3 33.8C73.9 33.8 72 32.6 71 30.7H70.9V33.5H66.3V14ZM78.3 25.1C78.3 22.5 77 20.7 74.9 20.7C72.8 20.7 71.4 22.6 71.4 25.1C71.4 27.6 72.8 29.5 74.9 29.5C77 29.5 78.3 27.7 78.3 25.1Z" fill="#0B1D8E"/>
    <path d="M87.2 17.5H92.1V33.4H87.2V17.5ZM92.1 14V15.7H87.2V14H92.1Z" fill="#0B1D8E"/>
    <path d="M97 17.5H101.9V20.1H102C102.7 18.1 104.5 17 107 17C111.1 17 113.7 20.2 113.7 25C113.7 29.8 111.1 33 107 33C104.6 33 102.8 31.9 102.1 29.8H102V33.4H97V17.5ZM108.6 25C108.6 22.4 107.4 20.6 105.3 20.6C103.2 20.6 101.9 22.5 101.9 25C101.9 27.5 103.2 29.4 105.3 29.4C107.4 29.4 108.6 27.6 108.6 25Z" fill="#0B1D8E"/>
    <path d="M118 17.5H122.8V20.4H122.9C123.8 18.4 125.5 17.1 128.1 17.1C132.2 17.1 134.8 20.2 134.8 25C134.8 29.9 132.2 33 128.1 33C125.6 33 123.8 31.8 122.9 29.9H122.8V37H118V17.5ZM129.6 25C129.6 22.4 128.4 20.6 126.3 20.6C124.2 20.6 122.9 22.5 122.9 25C122.9 27.5 124.2 29.4 126.3 29.4C128.4 29.4 129.6 27.6 129.6 25Z" fill="#0B1D8E"/>
    <path d="M138.8 25C138.8 20.1 142.1 17 146.5 17C150.9 17 154.2 20.1 154.2 25C154.2 29.9 150.9 33 146.5 33C142.1 33 138.8 29.9 138.8 25ZM149.2 25C149.2 22.4 148 20.6 146 20.6C143.9 20.6 142.7 22.4 142.7 25C142.7 27.6 143.9 29.4 146 29.4C148 29.4 149.2 27.6 149.2 25Z" fill="#0B1D8E"/>
    <path d="M157.7 17.5H162.6V20.1H162.7C163.3 18.1 165.2 17 167.6 17C171.7 17 174.3 20.2 174.3 25C174.3 29.8 171.7 33 167.6 33C165.1 33 163.4 31.9 162.7 29.8H162.6V37H157.7V17.5ZM169.2 25C169.2 22.4 168 20.6 165.9 20.6C163.8 20.6 162.5 22.5 162.5 25C162.5 27.5 163.8 29.4 165.9 29.4C168 29.4 169.2 27.6 169.2 25Z" fill="#0B1D8E"/>
    <path d="M178.4 17.5H183.3V33.4H178.4V17.5ZM183.3 14V15.7H178.4V14H183.3Z" fill="#0B1D8E"/>
    <path d="M188.3 25C188.3 20.1 191.6 17 196 17C200.4 17 203.7 20.1 203.7 25C203.7 29.9 200.4 33 196 33C191.6 33 188.3 29.9 188.3 25ZM198.7 25C198.7 22.4 197.5 20.6 195.4 20.6C193.3 20.6 192.1 22.4 192.1 25C192.1 27.6 193.3 29.4 195.4 29.4C197.5 29.4 198.7 27.6 198.7 25Z" fill="#0B1D8E"/>
    <path d="M208.2 14H213.1V33.4H208.2V14Z" fill="#0B1D8E"/>
  </g>
  <defs>
    <clipPath id="clip0">
      <rect width="217" height="46" fill="white"/>
    </clipPath>
  </defs>
</svg>
